<svg xmlns="http://www.w3.org/2000/svg" version="1.1" xmlns:xlink="http://www.w3.org/1999/xlink" xmlns:svgjs="http://svgjs.dev/svgjs" viewBox="0 0 1422 800" opacity="0.29"><defs><linearGradient x1="50%" y1="0%" x2="50%" y2="100%" id="oooscillate-grad"><stop stop-color="hsl(206, 75%, 49%)" stop-opacity="1" offset="0%"></stop><stop stop-color="hsl(331, 90%, 56%)" stop-opacity="1" offset="100%"></stop></linearGradient></defs><g stroke-width="2.5" stroke="url(#oooscillate-grad)" fill="none" stroke-linecap="round"><path d="M 0 820 Q 355.5 -100 711 400 Q 1066.5 900 1422 820"></path><path d="M 0 779 Q 355.5 -100 711 400 Q 1066.5 900 1422 779"></path><path d="M 0 738 Q 355.5 -100 711 400 Q 1066.5 900 1422 738"></path><path d="M 0 697 Q 355.5 -100 711 400 Q 1066.5 900 1422 697"></path><path d="M 0 656 Q 355.5 -100 711 400 Q 1066.5 900 1422 656"></path><path d="M 0 615 Q 355.5 -100 711 400 Q 1066.5 900 1422 615"></path><path d="M 0 574 Q 355.5 -100 711 400 Q 1066.5 900 1422 574"></path><path d="M 0 533 Q 355.5 -100 711 400 Q 1066.5 900 1422 533"></path><path d="M 0 492 Q 355.5 -100 711 400 Q 1066.5 900 1422 492"></path><path d="M 0 451 Q 355.5 -100 711 400 Q 1066.5 900 1422 451"></path><path d="M 0 410 Q 355.5 -100 711 400 Q 1066.5 900 1422 410"></path><path d="M 0 369 Q 355.5 -100 711 400 Q 1066.5 900 1422 369"></path><path d="M 0 328 Q 355.5 -100 711 400 Q 1066.5 900 1422 328"></path><path d="M 0 287 Q 355.5 -100 711 400 Q 1066.5 900 1422 287"></path><path d="M 0 246 Q 355.5 -100 711 400 Q 1066.5 900 1422 246"></path><path d="M 0 205 Q 355.5 -100 711 400 Q 1066.5 900 1422 205"></path><path d="M 0 164 Q 355.5 -100 711 400 Q 1066.5 900 1422 164"></path><path d="M 0 123 Q 355.5 -100 711 400 Q 1066.5 900 1422 123"></path><path d="M 0 82 Q 355.5 -100 711 400 Q 1066.5 900 1422 82"></path></g></svg>