<svg xmlns="http://www.w3.org/2000/svg" version="1.1" xmlns:xlink="http://www.w3.org/1999/xlink" xmlns:svgjs="http://svgjs.dev/svgjs" viewBox="0 0 1422 800" opacity="0.15"><defs><linearGradient x1="50%" y1="0%" x2="50%" y2="100%" id="oooscillate-grad"><stop stop-color="hsl(265, 55%, 30%)" stop-opacity="1" offset="0%"></stop><stop stop-color="hsl(265, 55%, 60%)" stop-opacity="1" offset="100%"></stop></linearGradient></defs><g stroke-width="7" stroke="url(#oooscillate-grad)" fill="none" stroke-linecap="round"><path d="M 0 720 Q 355.5 -100 711 400 Q 1066.5 900 1422 720" opacity="0.05"></path><path d="M 0 684 Q 355.5 -100 711 400 Q 1066.5 900 1422 684" opacity="0.10"></path><path d="M 0 648 Q 355.5 -100 711 400 Q 1066.5 900 1422 648" opacity="0.15"></path><path d="M 0 612 Q 355.5 -100 711 400 Q 1066.5 900 1422 612" opacity="0.20"></path><path d="M 0 576 Q 355.5 -100 711 400 Q 1066.5 900 1422 576" opacity="0.25"></path><path d="M 0 540 Q 355.5 -100 711 400 Q 1066.5 900 1422 540" opacity="0.30"></path><path d="M 0 504 Q 355.5 -100 711 400 Q 1066.5 900 1422 504" opacity="0.35"></path><path d="M 0 468 Q 355.5 -100 711 400 Q 1066.5 900 1422 468" opacity="0.40"></path><path d="M 0 432 Q 355.5 -100 711 400 Q 1066.5 900 1422 432" opacity="0.45"></path><path d="M 0 396 Q 355.5 -100 711 400 Q 1066.5 900 1422 396" opacity="0.50"></path><path d="M 0 360 Q 355.5 -100 711 400 Q 1066.5 900 1422 360" opacity="0.55"></path><path d="M 0 324 Q 355.5 -100 711 400 Q 1066.5 900 1422 324" opacity="0.60"></path><path d="M 0 288 Q 355.5 -100 711 400 Q 1066.5 900 1422 288" opacity="0.65"></path><path d="M 0 252 Q 355.5 -100 711 400 Q 1066.5 900 1422 252" opacity="0.70"></path><path d="M 0 216 Q 355.5 -100 711 400 Q 1066.5 900 1422 216" opacity="0.75"></path><path d="M 0 180 Q 355.5 -100 711 400 Q 1066.5 900 1422 180" opacity="0.80"></path><path d="M 0 144 Q 355.5 -100 711 400 Q 1066.5 900 1422 144" opacity="0.85"></path><path d="M 0 108 Q 355.5 -100 711 400 Q 1066.5 900 1422 108" opacity="0.90"></path><path d="M 0 72 Q 355.5 -100 711 400 Q 1066.5 900 1422 72" opacity="0.95"></path></g></svg>